<?xml version="1.0" ?><svg enable-background="new 0 0 40 40" id="Слой_1" version="1.1" viewBox="0 0 40 40" xml:space="preserve" xmlns="http://www.w3.org/2000/svg" xmlns:xlink="http://www.w3.org/1999/xlink"><g><path d="M30.8,10.9c-1.2,0-2.4,0.2-3.6,0.7c-0.5,0.2-0.7,0.8-0.5,1.3c0.2,0.5,0.8,0.7,1.3,0.5c0.9-0.4,1.8-0.6,2.8-0.6   c3.9,0,7.1,3.2,7.1,7.1s-3.2,7.1-7.1,7.1c-3.9,0-7.1-3.2-7.1-7.1c0-0.6-0.5-1-1-1s-1,0.4-1,1c0,1.3,0.3,2.6,0.8,3.8l-11.9,6.5   C9.5,28.9,7.8,28,5.9,28c-3.3,0-6,2.7-6,6s2.7,6,6,6s6-2.7,6-6c0-0.7-0.1-1.4-0.3-2l11.9-6.6c1.7,2.2,4.3,3.7,7.3,3.7   c5,0,9.1-4.1,9.1-9.1C39.9,15,35.8,10.9,30.8,10.9z M5.9,38c-2.2,0-4-1.8-4-4c0-2.2,1.8-4,4-4c1.5,0,2.8,0.8,3.5,2.1c0,0,0,0,0,0   c0,0,0,0,0,0c0.3,0.6,0.5,1.2,0.5,1.9C9.9,36.2,8.1,38,5.9,38z"/></g><g><path d="M31.3,19.1L11.5,8c0.2-0.6,0.4-1.3,0.4-2c0-3.3-2.7-6-6-6s-6,2.7-6,6s2.7,6,6,6c1.9,0,3.5-0.9,4.7-2.2l19.7,11.1   c0.2,0.1,0.3,0.1,0.5,0.1c0.3,0,0.7-0.2,0.9-0.5C31.9,20,31.7,19.4,31.3,19.1z M9.7,7L6.4,5.1C5.9,4.9,5.3,5,5,5.5S4.9,6.6,5.4,6.9   l3.4,1.9C8,9.5,7,10,5.9,10c-2.2,0-4-1.8-4-4c0-2.2,1.8-4,4-4s4,1.8,4,4C9.9,6.4,9.8,6.7,9.7,7z"/></g></svg>