<?xml version="1.0" ?><svg id="ICON" viewBox="0 0 512 512" xmlns="http://www.w3.org/2000/svg"><defs><style>.cls-1{fill:none;stroke:#5c6bc0;stroke-linecap:round;stroke-linejoin:round;stroke-width:16px;}.cls-2{fill:#5c6bc0;}</style></defs><title/><circle class="cls-1" cx="256" cy="256" r="192"/><path class="cls-1" d="M327.91,217.29a33.75,33.75,0,0,0-5.58-.47A33.38,33.38,0,0,0,303,223a9.54,9.54,0,0,1-10,.78l-47.76-25a8.85,8.85,0,0,1-4.7-8.06c0-.1,0-.19,0-.29a33.55,33.55,0,1,0-67,1.54,33.55,33.55,0,0,0,52.83,25.5,9.66,9.66,0,0,1,10.07-.76l47.26,24.72a9.65,9.65,0,0,1,5.12,8.68q0,.13,0,.27c0,.09,0,.18,0,.27a9.65,9.65,0,0,1-5.12,8.68L236.4,284a9.67,9.67,0,0,1-10.08-.76,33.37,33.37,0,0,0-20.12-6.11,33.56,33.56,0,1,0,5.61,66.76,33.28,33.28,0,0,0,28.74-33.22q0-.14,0-.28a9.64,9.64,0,0,1,5.12-8.67L292.94,277a9.67,9.67,0,0,1,10.07.76,33.55,33.55,0,0,0,52.79-25,34.16,34.16,0,0,0-.09-5.75"/><circle class="cls-2" cx="347.21" cy="227.87" r="8"/></svg>